<svg width="84" height="30" viewBox="0 0 84 30" fill="none" xmlns="http://www.w3.org/2000/svg">
<mask id="mask0" mask-type="alpha" maskUnits="userSpaceOnUse" x="0" y="0" width="84" height="30">
<path d="M0 0H13.5576C16.7977 0 19.6542 0.621468 22.127 1.86441C24.6282 3.0791 26.5609 4.80226 27.9252 7.0339C29.3179 9.26554 30.0142 11.8644 30.0142 14.8305C30.0142 17.7966 29.3179 20.3955 27.9252 22.6271C26.5609 24.8588 24.6282 26.596 22.127 27.839C19.6542 29.0537 16.7977 29.661 13.5576 29.661H0V0ZM13.2165 24.0254C16.2009 24.0254 18.5741 23.2062 20.3363 21.5678C22.127 19.9011 23.0223 17.6554 23.0223 14.8305C23.0223 12.0056 22.127 9.77401 20.3363 8.13559C18.5741 6.46893 16.2009 5.63559 13.2165 5.63559H6.90668V24.0254H13.2165Z" fill="black"/>
<path d="M46.3077 24.7034C47.5014 24.7034 48.5531 24.5339 49.4626 24.1949C50.4005 23.8277 51.2674 23.2627 52.0633 22.5L55.6019 26.3136C53.4418 28.7712 50.2868 30 46.1371 30C43.5507 30 41.2627 29.5056 39.2731 28.5169C37.2835 27.5 35.7487 26.1017 34.6686 24.322C33.5886 22.5424 33.0486 20.5226 33.0486 18.2627C33.0486 16.0311 33.5744 14.0254 34.626 12.2458C35.7061 10.4379 37.1698 9.03955 39.0173 8.05085C40.8932 7.0339 42.9965 6.52542 45.3271 6.52542C47.5156 6.52542 49.5052 6.99153 51.2958 7.92373C53.0865 8.82768 54.5076 10.1554 55.5592 11.9068C56.6393 13.6299 57.1793 15.678 57.1793 18.0508L40.211 21.3136C40.6942 22.4435 41.4474 23.291 42.4706 23.8559C43.5223 24.4209 44.8013 24.7034 46.3077 24.7034ZM45.3271 11.5254C43.6502 11.5254 42.2859 12.0621 41.2343 13.1356C40.1826 14.209 39.6284 15.6921 39.5715 17.5847L50.7416 15.4237C50.429 14.2373 49.7895 13.291 48.8231 12.5847C47.8567 11.8785 46.6914 11.5254 45.3271 11.5254Z" fill="black"/>
<path d="M84 6.86441L74.3221 29.661H67.4581L57.8228 6.86441H64.6869L71.0393 22.3729L77.6049 6.86441H84Z" fill="black"/>
</mask>
<g mask="url(#mask0)">
<path d="M84.0319 0.0183105H0V29.9045H84.0319V0.0183105Z" fill="url(#paint0_linear)"/>
</g>
<defs>
<linearGradient id="paint0_linear" x1="0.000336128" y1="16.0534" x2="83.617" y2="16.0534" gradientUnits="userSpaceOnUse">
<stop stop-color="#00EBFF"/>
<stop offset="0.35" stop-color="#F200DF"/>
<stop offset="1" stop-color="#FF4700"/>
</linearGradient>
</defs>
</svg>
