<?xml version="1.0" encoding="UTF-8"?>
<!-- Generator: Adobe Illustrator 24.0.0, SVG Export Plug-In . SVG Version: 6.00 Build 0)  -->
<svg version="1.1" id="Layer_1" xmlns="http://www.w3.org/2000/svg" xmlns:xlink="http://www.w3.org/1999/xlink" x="0px" y="0px" viewBox="0 0 38.4 33.5" style="enable-background:new 0 0 38.4 33.5;" xml:space="preserve">
<style type="text/css">
	.st0{fill:#8247E5;}
</style>
<g>
	<path class="st0" d="M29,10.2c-0.7-0.4-1.6-0.4-2.4,0L21,13.5l-3.8,2.1l-5.5,3.3c-0.7,0.4-1.6,0.4-2.4,0L5,16.3   c-0.7-0.4-1.2-1.2-1.2-2.1v-5c0-0.8,0.4-1.6,1.2-2.1l4.3-2.5c0.7-0.4,1.6-0.4,2.4,0L16,7.2c0.7,0.4,1.2,1.2,1.2,2.1v3.3l3.8-2.2V7   c0-0.8-0.4-1.6-1.2-2.1l-8-4.7c-0.7-0.4-1.6-0.4-2.4,0L1.2,5C0.4,5.4,0,6.2,0,7v9.4c0,0.8,0.4,1.6,1.2,2.1l8.1,4.7   c0.7,0.4,1.6,0.4,2.4,0l5.5-3.2l3.8-2.2l5.5-3.2c0.7-0.4,1.6-0.4,2.4,0l4.3,2.5c0.7,0.4,1.2,1.2,1.2,2.1v5c0,0.8-0.4,1.6-1.2,2.1   L29,28.8c-0.7,0.4-1.6,0.4-2.4,0l-4.3-2.5c-0.7-0.4-1.2-1.2-1.2-2.1V21l-3.8,2.2v3.3c0,0.8,0.4,1.6,1.2,2.1l8.1,4.7   c0.7,0.4,1.6,0.4,2.4,0l8.1-4.7c0.7-0.4,1.2-1.2,1.2-2.1V17c0-0.8-0.4-1.6-1.2-2.1L29,10.2z"/>
</g>
<style xmlns="" id="custom-style-code-0" type="text/css">@charset "UTF-8";
@font-face {
  font-family: "MS PGothic";
  font-weight: 100;
  src: local("Noto Sans CJK JP Thin");
}
@font-face {
  font-family: "MS PGothic";
  font-weight: 300;
  src: local("Noto Sans CJK JP Light");
}
@font-face {
  font-family: "MS PGothic";
  font-weight: 400;
  src: local("Noto Sans CJK JP Regular");
}
@font-face {
  font-family: "MS PGothic";
  font-weight: 500;
  src: local("Noto Sans CJK JP Medium");
}
@font-face {
  font-family: "MS PGothic";
  font-weight: 700;
  src: local("Noto Sans CJK JP Bold");
}
@font-face {
  font-family: "MS PGothic";
  font-weight: 900;
  src: local("Noto Sans CJK JP Black");
}
@font-face {
  font-family: "MS PGothic";
  src: local("Noto Sans CJK JP");
}
@font-face {
  font-family: "ＭＳ Ｐゴシック";
  font-weight: 100;
  src: local("Noto Sans CJK JP Thin");
}
@font-face {
  font-family: "ＭＳ Ｐゴシック";
  font-weight: 300;
  src: local("Noto Sans CJK JP Light");
}
@font-face {
  font-family: "ＭＳ Ｐゴシック";
  font-weight: 400;
  src: local("Noto Sans CJK JP Regular");
}
@font-face {
  font-family: "ＭＳ Ｐゴシック";
  font-weight: 500;
  src: local("Noto Sans CJK JP Medium");
}
@font-face {
  font-family: "ＭＳ Ｐゴシック";
  font-weight: 700;
  src: local("Noto Sans CJK JP Bold");
}
@font-face {
  font-family: "ＭＳ Ｐゴシック";
  font-weight: 900;
  src: local("Noto Sans CJK JP Black");
}
@font-face {
  font-family: "ＭＳ Ｐゴシック";
  src: local("Noto Sans CJK JP");
}
@font-face {
  font-family: "ＭＳ Ｐ ゴシック";
  font-weight: 100;
  src: local("Noto Sans CJK JP Thin");
}
@font-face {
  font-family: "ＭＳ Ｐ ゴシック";
  font-weight: 300;
  src: local("Noto Sans CJK JP Light");
}
@font-face {
  font-family: "ＭＳ Ｐ ゴシック";
  font-weight: 400;
  src: local("Noto Sans CJK JP Regular");
}
@font-face {
  font-family: "ＭＳ Ｐ ゴシック";
  font-weight: 500;
  src: local("Noto Sans CJK JP Medium");
}
@font-face {
  font-family: "ＭＳ Ｐ ゴシック";
  font-weight: 700;
  src: local("Noto Sans CJK JP Bold");
}
@font-face {
  font-family: "ＭＳ Ｐ ゴシック";
  font-weight: 900;
  src: local("Noto Sans CJK JP Black");
}
@font-face {
  font-family: "ＭＳ Ｐ ゴシック";
  src: local("Noto Sans CJK JP");
}
@font-face {
  font-family: "Meiryo";
  font-weight: 100;
  src: local("Noto Sans CJK JP Thin");
}
@font-face {
  font-family: "Meiryo";
  font-weight: 300;
  src: local("Noto Sans CJK JP Light");
}
@font-face {
  font-family: "Meiryo";
  font-weight: 400;
  src: local("Noto Sans CJK JP Regular");
}
@font-face {
  font-family: "Meiryo";
  font-weight: 500;
  src: local("Noto Sans CJK JP Medium");
}
@font-face {
  font-family: "Meiryo";
  font-weight: 700;
  src: local("Noto Sans CJK JP Bold");
}
@font-face {
  font-family: "Meiryo";
  font-weight: 900;
  src: local("Noto Sans CJK JP Black");
}
@font-face {
  font-family: "Meiryo";
  src: local("Noto Sans CJK JP");
}
@font-face {
  font-family: "メイリオ";
  font-weight: 100;
  src: local("Noto Sans CJK JP Thin");
}
@font-face {
  font-family: "メイリオ";
  font-weight: 300;
  src: local("Noto Sans CJK JP Light");
}
@font-face {
  font-family: "メイリオ";
  font-weight: 400;
  src: local("Noto Sans CJK JP Regular");
}
@font-face {
  font-family: "メイリオ";
  font-weight: 500;
  src: local("Noto Sans CJK JP Medium");
}
@font-face {
  font-family: "メイリオ";
  font-weight: 700;
  src: local("Noto Sans CJK JP Bold");
}
@font-face {
  font-family: "メイリオ";
  font-weight: 900;
  src: local("Noto Sans CJK JP Black");
}
@font-face {
  font-family: "メイリオ";
  src: local("Noto Sans CJK JP");
}
@font-face {
  font-family: "Meiryo UI";
  font-weight: 100;
  src: local("Noto Sans CJK JP Thin");
}
@font-face {
  font-family: "Meiryo UI";
  font-weight: 300;
  src: local("Noto Sans CJK JP Light");
}
@font-face {
  font-family: "Meiryo UI";
  font-weight: 400;
  src: local("Noto Sans CJK JP Regular");
}
@font-face {
  font-family: "Meiryo UI";
  font-weight: 500;
  src: local("Noto Sans CJK JP Medium");
}
@font-face {
  font-family: "Meiryo UI";
  font-weight: 700;
  src: local("Noto Sans CJK JP Bold");
}
@font-face {
  font-family: "Meiryo UI";
  font-weight: 900;
  src: local("Noto Sans CJK JP Black");
}
@font-face {
  font-family: "Meiryo UI";
  src: local("Noto Sans CJK JP");
}
@font-face {
  font-family: x-locale-body;
  font-weight: 100;
  src: local("Noto Sans CJK JP Thin");
}
@font-face {
  font-family: x-locale-body;
  font-weight: 300;
  src: local("Noto Sans CJK JP Light");
}
@font-face {
  font-family: x-locale-body;
  font-weight: 400;
  src: local("Noto Sans CJK JP Regular");
}
@font-face {
  font-family: x-locale-body;
  font-weight: 500;
  src: local("Noto Sans CJK JP Medium");
}
@font-face {
  font-family: x-locale-body;
  font-weight: 700;
  src: local("Noto Sans CJK JP Bold");
}
@font-face {
  font-family: x-locale-body;
  font-weight: 900;
  src: local("Noto Sans CJK JP Black");
}
@font-face {
  font-family: x-locale-body;
  src: local("Noto Sans CJK JP");
}
@font-face {
  font-family: "ＭＳ Ｐ明朝";
  src: local("Noto Serif CJK JP");
}
@font-face {
  font-family: "MS PMincho";
  src: local("Noto Serif CJK JP");
}
@font-face {
  font-family: "MS 明朝";
  src: local("Noto Serif CJK JP");
}</style><style xmlns="" id="custom-style-code-1" type="text/css">* {
   scrollbar-width: none;
}
</style></svg>