<svg width="223" height="35" viewBox="0 0 223 35" fill="none" xmlns="http://www.w3.org/2000/svg">
<path d="M65.848 25.74C66.94 26.664 68.9 27.392 71.7 27.392C76.46 27.392 79.12 25.292 79.12 21.68C79.12 18.264 76.264 16.92 72.988 16.192C70.748 15.688 69.124 15.464 69.124 13.896C69.124 12.58 70.3 11.768 72.26 11.768C74.192 11.768 76.012 12.72 77.076 13.98C77.16 14.064 78.7 13.112 78.7 11.824C78.7 11.152 78.308 10.424 77.44 9.836C76.404 9.08 74.668 8.492 72.232 8.492C67.864 8.492 65.176 10.704 65.176 14.064C65.176 17.788 68.144 18.852 71.028 19.496C73.156 19.972 74.976 20.308 74.976 21.932C74.976 23.332 73.828 24.116 71.672 24.116C69.46 24.116 67.388 22.968 66.296 21.68C66.156 21.54 64.728 22.576 64.728 23.724C64.728 24.396 65.064 25.124 65.848 25.74ZM86.7246 27.392C88.0406 27.392 89.0486 27 89.6646 26.384C90.1126 25.964 90.3366 25.46 90.3366 24.872C90.3366 23.836 89.4966 23.276 89.3566 23.332C88.9926 23.864 88.4326 24.256 87.6486 24.256C86.5566 24.256 86.1366 23.584 86.1366 22.24V16.416H88.5446C89.6646 16.416 90.1686 15.912 90.1686 14.96V14.708C90.1686 13.812 89.6926 13.336 88.5726 13.336H86.1926V11.6C86.1926 10.144 85.4926 9.696 84.4566 9.696H84.0926C82.9726 9.696 82.3286 10.312 82.3286 11.6V13.336H81.6006C80.5086 13.336 80.0046 13.868 80.0046 14.792V15.016C80.0046 15.912 80.5086 16.416 81.6286 16.416H82.3286V22.688C82.3286 25.796 83.7286 27.392 86.7246 27.392ZM91.6082 23.388C91.6082 25.74 93.3442 27.308 96.2002 27.308C98.2442 27.308 99.9802 26.44 100.932 24.956C100.988 25.32 101.072 25.628 101.156 25.88C101.52 26.804 102.276 27.196 103.228 27.196C103.984 27.196 104.712 26.944 104.712 26.748V18.684C104.712 15.016 102.612 13.028 98.2722 13.028C95.6402 13.028 93.8762 13.672 92.9522 14.624C92.3922 15.156 92.1122 15.8 92.1122 16.416C92.1122 18.236 94.6322 18.04 94.6602 17.984C95.1362 16.948 96.1442 15.996 98.0202 15.996C99.7562 15.996 100.736 16.864 100.792 18.46C100.82 18.572 100.82 18.712 100.82 18.852H100.372C94.5762 18.936 91.6082 20.336 91.6082 23.388ZM100.82 21.82C100.792 23.556 99.3922 24.76 97.4322 24.76C96.1162 24.76 95.3042 24.116 95.3042 23.08C95.3042 21.54 96.9562 20.952 100.064 20.84H100.82V21.82ZM107.539 25.236C107.539 26.692 108.295 27.112 109.331 27.112H109.751C110.759 27.112 111.487 26.664 111.487 25.236V20.868L115.771 25.908C116.443 26.86 117.227 27.168 117.983 27.168C119.243 27.168 120.251 26.048 120.167 25.824L115.183 19.86L119.579 14.512C119.691 14.316 118.739 13.168 117.479 13.168C116.779 13.168 115.939 13.504 115.295 14.428L111.487 19.132V10.704C111.487 8.156 110.199 7.54 109.051 7.54C108.239 7.54 107.539 7.876 107.539 7.988V25.236ZM121.167 20.28C121.167 24.62 124.079 27.392 128.531 27.392C130.435 27.392 131.891 26.972 132.899 26.356C133.879 25.768 134.411 24.984 134.411 24.228C134.411 22.66 132.507 22.492 132.479 22.548C131.863 23.64 130.687 24.536 128.643 24.536C126.627 24.536 125.143 23.388 124.723 21.596L124.639 21.148H134.103C134.831 21.148 135.027 20.784 135.055 20.112V19.86C135.055 15.856 132.311 13.028 128.251 13.028C124.135 13.028 121.167 16.108 121.167 20.28ZM131.415 18.992H124.695C124.947 17.088 126.347 15.744 128.223 15.744C130.099 15.744 131.303 17.004 131.415 18.992ZM137.569 26.272C138.549 26.888 140.117 27.308 142.273 27.308C146.109 27.308 148.293 25.656 148.293 22.912C148.293 19.832 145.213 19.216 143.281 18.796C141.433 18.376 140.369 18.18 140.369 17.2C140.369 16.332 141.181 15.772 142.693 15.772C144.289 15.772 145.773 16.556 146.697 17.62C146.753 17.704 147.957 17.004 147.957 15.968C147.957 15.576 147.845 15.184 147.621 14.848C146.921 13.784 145.213 13.028 142.441 13.028C138.913 13.028 136.757 14.792 136.757 17.452C136.757 20.532 139.669 21.148 141.545 21.54C143.365 21.932 144.457 22.128 144.457 23.192C144.457 24.06 143.617 24.592 142.077 24.592C140.061 24.592 138.493 23.78 137.569 22.744C137.457 22.66 136.365 23.304 136.365 24.312C136.365 25.068 136.785 25.74 137.569 26.272ZM150.69 26.16C150.69 26.776 151.054 27.14 151.67 27.14H151.866C152.51 27.14 152.874 26.776 152.874 26.16V25.964C152.874 25.32 152.538 24.956 151.866 24.956H151.67C151.054 24.956 150.69 25.32 150.69 25.964V26.16ZM156.049 25.908C156.917 26.664 158.429 27.308 160.613 27.308C163.889 27.308 165.933 25.684 165.933 23.248C165.933 20.504 163.301 19.916 161.117 19.44C158.905 18.936 157.505 18.6 157.505 17.144C157.505 15.856 158.681 14.932 160.725 14.932C162.517 14.932 163.973 15.8 164.701 16.92C164.757 16.976 165.569 16.612 165.569 15.912C165.569 15.576 165.373 15.156 165.065 14.848C164.309 14.036 162.853 13.336 160.697 13.336C157.617 13.336 155.629 14.988 155.629 17.368C155.629 20.084 158.205 20.672 160.249 21.092C162.517 21.596 163.973 21.904 163.973 23.472C163.973 24.788 162.741 25.684 160.641 25.684C158.457 25.684 156.945 24.788 156.105 23.584C156.021 23.556 155.237 23.864 155.237 24.564C155.237 24.984 155.489 25.432 156.049 25.908ZM167.874 20.308C167.874 24.368 170.646 27.308 174.65 27.308C178.626 27.308 181.426 24.396 181.426 20.364C181.426 16.276 178.626 13.336 174.678 13.336C170.674 13.336 167.874 16.248 167.874 20.308ZM179.466 20.364C179.466 23.416 177.45 25.6 174.678 25.6C171.878 25.6 169.834 23.388 169.834 20.308C169.834 17.228 171.878 15.044 174.678 15.044C177.478 15.044 179.466 17.284 179.466 20.364ZM183.35 20.28C183.35 24.368 186.15 27.308 190.07 27.308C192.198 27.308 193.682 26.58 194.55 25.656C195.306 24.928 195.642 24.144 195.642 23.696C195.642 22.744 194.41 22.604 194.354 22.716C193.766 24.256 192.534 25.572 190.126 25.572C187.298 25.572 185.338 23.36 185.338 20.28C185.338 17.256 187.326 15.072 190.126 15.072C192.562 15.072 193.766 16.388 194.354 17.928C194.438 18.04 195.642 17.872 195.642 16.976C195.642 16.472 195.306 15.66 194.55 14.96C193.654 14.092 192.198 13.336 190.098 13.336C186.15 13.336 183.35 16.276 183.35 20.28ZM198.188 9.444C198.188 10.256 198.664 10.704 199.448 10.704C200.26 10.704 200.764 10.256 200.764 9.444C200.764 8.604 200.288 8.156 199.476 8.156C198.664 8.156 198.188 8.604 198.188 9.444ZM198.44 26.132C198.44 26.86 198.804 27.084 199.336 27.084H199.56C200.092 27.084 200.456 26.86 200.456 26.132V14.512C200.456 13.756 200.092 13.532 199.56 13.532H199.336C198.804 13.532 198.44 13.784 198.44 14.512V26.132ZM203.339 23.556C203.339 25.824 205.075 27.28 207.875 27.28C210.115 27.28 211.935 26.216 212.831 24.592C212.831 25.012 212.859 25.432 212.887 25.824C212.999 26.832 213.475 27.112 214.063 27.112C214.427 27.112 214.791 26.972 214.791 26.888V18.628C214.791 15.324 212.859 13.336 209.303 13.336C207.091 13.336 205.551 14.092 204.683 14.932C204.151 15.436 203.871 16.024 203.871 16.416C203.871 17.424 205.047 17.48 205.103 17.452C205.775 16.108 207.063 15.072 209.191 15.072C211.487 15.072 212.803 16.332 212.803 18.6V19.16H212.495C206.195 19.244 203.339 20.532 203.339 23.556ZM212.803 21.764C212.803 24.032 210.843 25.768 208.267 25.768C206.475 25.768 205.355 24.9 205.355 23.5C205.355 21.456 207.455 20.616 212.327 20.504L212.803 20.476V21.764ZM219.297 27.084H219.521C220.053 27.084 220.417 26.86 220.417 26.132V9.696C220.417 8.24 219.773 7.904 219.129 7.904C218.737 7.904 218.401 8.044 218.401 8.128V26.132C218.401 26.86 218.765 27.084 219.297 27.084Z" fill="white"/>
<path d="M4 31C14.8642 15.205 26 4.00002 37.1358 4C42.5679 3.99999 48 8.38685 48 15.205C48 22.0232 36.598 31 26 31C15.4021 31 4.00001 22.5686 4 15.205C3.99999 7.84143 9.43212 4 14.8642 4C26 4 37.1358 15.205 48 31" stroke="white" stroke-width="7" stroke-linecap="round"/>
</svg>
