<svg
  xmlns="http://www.w3.org/2000/svg" viewBox="0 0 25 20">
  <defs>
    <style>.cls-1{fill:inherit;fill-rule:evenodd;}</style>
  </defs>
  <g id="Layer_1-2" data-name="Layer 1">
    <path class="cls-1" d="M9.14,4a5.77,5.77,0,0,0-.9-.21A3.66,3.66,0,0,0,4.88,4.9c-1.34,1.45-1.46,3.77-.51,6a25.32,25.32,0,0,1,4.14-6.2C8.72,4.43,8.93,4.22,9.14,4Zm3.36-2.6A10.45,10.45,0,0,0,8.76.09,7.36,7.36,0,0,0,2.13,2.36C-1.13,5.89-.2,11,1.94,14.21a8.19,8.19,0,0,0,.7.94c-.15.47-.28.89-.38,1.25s-.2.73-.25,1l-.07.27,0,.07v0h0l1.83.38-1.83-.38a1.87,1.87,0,1,0,3.67.77h0v0a1.49,1.49,0,0,1,.05-.21c0-.14.08-.34.15-.57a14.18,14.18,0,0,0,6.62,1.66h.16a14.25,14.25,0,0,0,6.63-1.66c.06.23.11.43.15.57s0,.16,0,.21l0,0h0a1.87,1.87,0,0,0,3.67-.77l-1.84.38,1.84-.38h0v0l0-.07a2.32,2.32,0,0,0-.06-.27c-.06-.23-.14-.56-.26-1s-.22-.78-.38-1.25a9.64,9.64,0,0,0,.71-.94C25.2,11,26.13,5.89,22.88,2.36A7.38,7.38,0,0,0,16.24.09,10.45,10.45,0,0,0,12.5,1.41ZM12.5,6c-.41.36-.82.76-1.25,1.21A23.43,23.43,0,0,0,7,14.06a10.2,10.2,0,0,0,5.38,1.53h.16A10.2,10.2,0,0,0,18,14.06a23.22,23.22,0,0,0-4.21-6.85C13.33,6.76,12.91,6.36,12.5,6Zm8.13,4.86a25.32,25.32,0,0,0-4.14-6.2c-.21-.23-.42-.44-.63-.65a5.62,5.62,0,0,1,.91-.21,3.64,3.64,0,0,1,3.35,1.1C21.46,6.35,21.58,8.67,20.63,10.86Z"/>
  </g>
</svg>
